<?xml version="1.0" encoding="utf-8"?>
<!-- Generator: Adobe Illustrator 28.1.0, SVG Export Plug-In . SVG Version: 6.00 Build 0)  -->
<svg version="1.1" id="Ebene_1" xmlns="http://www.w3.org/2000/svg" xmlns:xlink="http://www.w3.org/1999/xlink" x="0px" y="0px"
	 viewBox="0 0 616.1 616.1" style="enable-background:new 0 0 616.1 616.1;" xml:space="preserve">
<style type="text/css">
	.st0{fill:#212121;}
	.st1{fill:#0094C7;}
	.st2{fill:#5EA35C;}
	.st3{fill:#FAFAFA;}
	.st4{opacity:0.5;fill:none;stroke:#C60000;stroke-width:0.5;stroke-miterlimit:10;}
	.st5{opacity:0.5;fill:none;stroke:#C60000;stroke-width:0.4902;stroke-miterlimit:10;}
	.st6{opacity:0.5;fill:none;stroke:#C60000;stroke-width:0.5073;stroke-miterlimit:10;}
	.st7{opacity:0.5;fill:none;stroke:#C60000;stroke-width:0.4974;stroke-miterlimit:10;}
	.st8{opacity:0.5;}
	.st9{fill:#A3A3A2;}
	.st10{fill:#8E8D8D;}
</style>
<g>
	<path class="st3" d="M69.3,289.7c-0.8-7-1.1-14.2-1.1-21.5c0-25.9,4.9-51.6,14.4-75.5c10.1-17.1,22.4-33,36.8-47.4
		c12.1-12.1,25.3-22.8,39.4-31.9v31.7c-7.4,5.7-14.4,11.8-21.1,18.5c-40,40-62.1,93.2-62.1,149.8c0,3.6,0.1,7.2,0.3,10.8
		c-1.4-4.7-2.5-9.4-3.5-14.2C71,303.3,69.9,296.5,69.3,289.7z"/>
	<path class="st3" d="M477.1,457.1l-2.5,3.2c-5.8,7.3-12.1,14.5-18.9,21.2c-44.9,44.9-104.6,69.6-168.1,69.6s-123.2-24.7-168.2-69.6
		c-21.3-21.3-38.2-46.2-50-73.3c3.2,4.6,6.5,9.1,10,13.5c3.3,4.2,7,8.5,10.8,12.7c1.6,1.8,3.2,3.5,4.8,5.1c1.1,1.1,2.3,2.3,3.4,3.5
		c1.1,1.2,2.3,2.3,3.5,3.4l0.1,0.1l0.1,0.1c3.5,3.4,7.2,6.7,10.9,9.9c22.2,18.9,47.4,33.7,74.5,43.7c0,0,0,0,0,0
		c30.4,16.4,64.6,25.1,100.1,25.1c56.6,0,109.8-22,149.8-62.1c2.1-2.1,4-4.1,5.9-6.2H477.1z"/>
	<g>
		<path class="st3" d="M409.7,457.6c-23,16.6-49.1,29.1-77.3,36.4c-4,1-8.1,2-12.2,2.8c-1.6,0.3-3.2,0.7-4.8,0.9
			c-1.2,0.2-2.3,0.4-3.5,0.6c-1.9,0.3-3.7,0.6-5.6,0.9c-1.5,0.2-3.1,0.4-4.6,0.6c-3.2,0.4-6.5,0.7-9.7,1c-3,0.2-5.9,0.4-8.9,0.5
			c-3.2,0.1-6.3,0.2-9.5,0.2c-4,0-8-0.1-12-0.3c-2-0.1-4-0.2-5.9-0.4c-2-0.2-3.9-0.3-5.9-0.5c-2.1-0.2-4.2-0.5-6.3-0.7
			c-1.8-0.2-3.6-0.5-5.4-0.8c-1.4-0.2-2.7-0.4-4.1-0.7c-42.2-7.2-80.5-25.7-111.7-52.4c-3.5-3-7-6.1-10.3-9.3
			c-1.1-1.1-2.2-2.2-3.4-3.3c-1.1-1.1-2.2-2.2-3.3-3.3c-1.5-1.6-3-3.2-4.5-4.8c-3.5-3.9-6.9-7.9-10.2-12
			c-8.3-10.4-15.7-21.5-22-33.3c-3.5-6.3-6.6-12.8-9.5-19.4c-2.9-6.6-5.4-13.5-7.7-20.4c-2.3-7.2-4.3-14.6-6-22.1
			c-1-4.5-1.8-9.1-2.5-13.7c-1.8-11.7-2.7-23.7-2.7-35.9c0-2,0-3.9,0.1-5.8c0.1-1.9,0.1-3.9,0.2-5.8c0.2-3.1,0.4-6.2,0.6-9.3
			c0.1-1.1,0.2-2.2,0.3-3.4c0.2-1.9,0.4-3.7,0.6-5.5c0.2-1.2,0.3-2.4,0.5-3.6c0.1-0.8,0.2-1.6,0.3-2.3c0.1-0.4,0.1-0.9,0.2-1.3
			c0.4-2.3,0.8-4.6,1.2-6.9c0.2-1.2,0.5-2.4,0.7-3.6c0.1-0.2,0.1-0.5,0.2-0.8c0.5-2.4,1.1-4.8,1.6-7.2c0.3-1.3,0.6-2.5,0.9-3.8
			c0.9-3.3,1.8-6.6,2.8-9.9c6-19.5,14.5-37.9,25.2-54.8c1.7-2.8,3.6-5.6,5.5-8.3c2.2-3.1,4.4-6.2,6.7-9.2c3.1-4,6.3-7.9,9.6-11.8
			c1-1.1,2-2.3,3-3.4c1.3-1.4,2.6-2.9,4-4.3c1.1-1.2,2.2-2.3,3.4-3.5c6.2-6.3,12.8-12.2,19.7-17.7c1.3-1,2.5-2,3.8-3
			c8.8-6.7,18-12.8,27.7-18.3v16.4C96.1,119.9,54.1,189.2,54.1,268.2c0,0,0,0,0,0.1c0,7.7,0.4,15.4,1.2,22.9
			c0.8,7.4,1.9,14.7,3.4,21.8c2.6,12.6,6.3,24.8,11,36.5c2.5,6.3,5.3,12.5,8.4,18.5c0,0,0,0,0,0c3.1,6,6.4,11.8,10,17.5
			c38.9,61.3,107.4,102,185.2,102c40.2,0,77.9-10.9,110.4-29.9H409.7z"/>
	</g>
	<g>
		<path class="st3" d="M194.6,208.5c-11.9,0-21.5,9.6-21.5,21.5v146.8c0,9.7,7.8,17.5,17.5,17.5h25.5V230
			C216.1,218.1,206.5,208.5,194.6,208.5z"/>
		<path class="st3" d="M247.3,208.5c-4.8,0-9.2,2-12.4,5.1c-3.2,3.2-5.1,7.5-5.1,12.4c0,9.7,7.8,17.5,17.5,17.5h41.9v133.3
			c0,9.7,7.8,17.5,17.5,17.5h25.5V243.5h41.9c9.7,0,17.5-7.8,17.5-17.5v-17.5H247.3z"/>
		<path class="st3" d="M567.1,314.5c-6-7.9-14.3-13.5-24.9-16.9c7.8-4.1,13.8-9.6,18.2-16.7c4.3-7.1,6.5-15.1,6.5-24.1
			c0-14.9-6.1-26.6-18.2-35.3c-12.1-8.7-29.5-13-52.2-13h-90.8v144.6c0,22.8,18.5,41.2,41.2,41.2h54.9c24.2,0,42.7-4.4,55.3-13.2
			c12.7-8.8,19-21.3,19-37.6C576.1,332.1,573.1,322.4,567.1,314.5z M448.4,240.8h42.7c10.6,0,18.7,1.8,24.2,5.4
			c5.5,3.6,8.2,9.1,8.2,16.3c0,7.2-2.7,12.7-8.2,16.4c-5.5,3.7-13.5,5.6-24.2,5.6h-42.7V240.8z M524.2,356.3
			c-5.7,3.7-14.3,5.6-25.6,5.6h-50.2V316h50.2c22.8,0,34.2,7.7,34.2,23.1C532.8,346.9,530,352.6,524.2,356.3z"/>
	</g>
</g>
</svg>
